<svg xmlns="http://www.w3.org/2000/svg" width="83" height="83" viewBox="0 0 83 83">
  <metadata><?xpacket begin="﻿" id="W5M0MpCehiHzreSzNTczkc9d"?>
<x:xmpmeta xmlns:x="adobe:ns:meta/" x:xmptk="Adobe XMP Core 5.6-c142 79.160924, 2017/07/13-01:06:39        ">
   <rdf:RDF xmlns:rdf="http://www.w3.org/1999/02/22-rdf-syntax-ns#">
      <rdf:Description rdf:about=""/>
   </rdf:RDF>
</x:xmpmeta>
                                                                                                    
                                                                                                    
                                                                                                    
                                                                                                    
                                                                                                    
                                                                                                    
                                                                                                    
                                                                                                    
                                                                                                    
                                                                                                    
                                                                                                    
                                                                                                    
                                                                                                    
                                                                                                    
                                                                                                    
                                                                                                    
                                                                                                    
                                                                                                    
                                                                                                    
                                                                                                    
                           
<?xpacket end="w"?></metadata>
<defs>
    <style>
      .cls-1 {
        fill: none;
        stroke: #e26425;
        stroke-width: 10px;
        fill-rule: evenodd;
      }
    </style>
  </defs>
  <path class="cls-1" d="M77,74.325a5.332,5.332,0,0,1-7.853,1.57L45.945,58.26a6.4,6.4,0,0,1-2.429-5.314,19.916,19.916,0,0,1-11.31,6.763,18.944,18.944,0,0,1-15.357-3.634,22.688,22.688,0,0,1-8.511-14.5A24.177,24.177,0,0,1,11.646,24.7C18.087,14.48,30.9,11.918,40.207,18.99c8.449,6.426,11.149,18.618,6.757,28.459a5.212,5.212,0,0,1,5.4.615L75.57,65.7A6.592,6.592,0,0,1,77,74.325ZM42.6,34.719a15.807,15.807,0,0,0-5.932-10.109c-6.487-4.935-15.424-3.151-19.92,3.976s-2.864,16.948,3.625,21.877S35.8,53.613,40.3,46.484A16.855,16.855,0,0,0,42.6,34.719Z"/>
</svg>
